<svg width="44" height="44" viewBox="0 0 44 44" fill="none" xmlns="http://www.w3.org/2000/svg">
<path d="M22 0C32.6993 0 41.6121 7.63818 43.5889 17.7588C39.1334 18.095 33.6227 18.5 33 18.5C32 18 31.4999 16.9999 32 16H31.7979L34.0205 9.97949L25.708 13.0479L22 5L18.292 13.0479L9.97949 9.97949L13.0479 18.292L5 22L13.0479 25.708L9.97949 34.0205L18.292 30.9521L22 39L25.708 30.9521L34.0205 34.0205L31.7773 27.9443L32 28C31.8333 27.5 31.8002 26.4 33 26C33.9153 25.6949 39.1548 26.3399 43.4385 26.959C41.1895 36.721 32.445 44 22 44C9.84974 44 0 34.1503 0 22C0 9.84974 9.84974 0 22 0Z" fill="white"/>
</svg>
